<svg width="585" height="596" viewBox="0 0 585 596" fill="none" xmlns="http://www.w3.org/2000/svg">
<rect width="585" height="596" rx="292.5" fill="white"/>
<ellipse cx="292" cy="297.5" rx="230" ry="230.5" fill="#7BD3FF"/>
<path d="M39.8403 353.508C38.8544 353.875 38.3651 354.984 38.7673 355.956C58.2925 403.156 93.8756 442.636 139.732 467.926C186.163 493.532 240.31 503.037 293.116 494.851C345.921 486.664 394.183 461.282 429.827 422.952C465.472 384.621 486.337 335.666 488.933 284.275C491.529 232.885 475.698 182.176 444.089 140.631C412.48 99.0862 367.009 69.225 315.282 56.0426C263.556 42.8603 208.712 47.1562 159.924 68.2119C111.739 89.0071 72.348 124.904 48.1598 170.016C47.6624 170.943 48.041 172.096 48.9874 172.556V172.556C49.8937 172.997 50.9858 172.638 51.4617 171.749C75.2571 127.33 114.031 91.9827 161.466 71.5109C209.468 50.7942 263.43 46.5674 314.323 59.5375C365.217 72.5077 409.956 101.888 441.056 142.764C472.157 183.64 487.733 233.533 485.179 284.096C482.624 334.659 462.095 382.826 427.024 420.54C391.954 458.253 344.469 483.226 292.513 491.281C240.558 499.336 187.282 489.984 141.599 464.79C96.46 439.896 61.4381 401.027 42.233 354.558C41.8463 353.622 40.7892 353.155 39.8403 353.508V353.508Z" fill="black"/>
<line x1="40.3274" y1="350.699" x2="30.3274" y2="369.699" stroke="black" stroke-width="3"/>
<line x1="39.1292" y1="350.938" x2="59.5066" y2="361.604" stroke="black" stroke-width="3"/>
</svg>
